<svg width="26" height="28" viewBox="0 0 26 28" fill="none" xmlns="http://www.w3.org/2000/svg">
<path d="M8.66659 15.4999C8.66659 16.2362 8.06965 16.8333 7.33325 16.8333C6.59685 16.8333 5.99992 16.2362 5.99992 15.4999C5.99992 14.7637 6.59685 14.1666 7.33325 14.1666C8.06965 14.1666 8.66659 14.7635 8.66659 15.4999ZM17.9999 14.4999H12.3333C11.7811 14.4999 11.3333 14.9478 11.3333 15.4999C11.3333 16.0521 11.7811 16.4999 12.3333 16.4999H17.9999C18.5521 16.4999 18.9999 16.0521 18.9999 15.4999C18.9999 14.9478 18.5521 14.4999 17.9999 14.4999ZM7.33325 19.4999C6.59685 19.4999 5.99992 20.0969 5.99992 20.8333C5.99992 21.5697 6.59685 22.1666 7.33325 22.1666C8.06965 22.1666 8.66659 21.5695 8.66659 20.8333C8.66659 20.097 8.06965 19.4999 7.33325 19.4999ZM17.9999 19.8333H12.3333C11.7811 19.8333 11.3333 20.2811 11.3333 20.8333C11.3333 21.3854 11.7811 21.8333 12.3333 21.8333H17.9999C18.5521 21.8333 18.9999 21.3854 18.9999 20.8333C18.9999 20.2811 18.5521 19.8333 17.9999 19.8333ZM25.6666 6.16659C25.6666 9.11205 23.2789 11.4999 20.3333 11.4999C17.3877 11.4999 14.9999 9.11205 14.9999 6.16659C14.9999 3.22112 17.3877 0.833252 20.3333 0.833252C23.2789 0.833252 25.6666 3.22099 25.6666 6.16659ZM23.0403 4.79285C22.6497 4.40219 22.0169 4.40219 21.6263 4.79285L20.3334 6.08579L19.0405 4.79285C18.6498 4.40219 18.017 4.40219 17.6265 4.79285C17.2359 5.18352 17.2358 5.81632 17.6265 6.20685L19.6265 8.20685C19.8218 8.40219 20.077 8.49979 20.3335 8.49979C20.5901 8.49979 20.8453 8.40219 21.0406 8.20685L23.0406 6.20685C23.4313 5.81619 23.431 5.18339 23.0403 4.79285ZM2.99992 2.16659C1.52712 2.16659 0.333252 3.36045 0.333252 4.83325V23.4999C0.333252 25.5221 1.97779 27.1666 3.99992 27.1666H20.6666C22.6887 27.1666 24.3333 25.5221 24.3333 23.4999V13.0842C23.7139 13.4437 23.0429 13.7197 22.3333 13.9033V23.4998C22.3333 24.4191 21.5859 25.1665 20.6666 25.1665H3.99992C3.08059 25.1665 2.33325 24.4191 2.33325 23.4998V10.1666H13.4157C12.7317 8.98832 12.3333 7.62445 12.3333 6.16659C12.3333 4.70872 12.7317 3.34485 13.4157 2.16659H2.99992Z" fill="#9780F2"/>
</svg>
