<svg width="21" height="20" viewBox="0 0 21 20" fill="none" xmlns="http://www.w3.org/2000/svg">
<path d="M18.3333 0H2.33325C1.22865 0 0.333252 0.8954 0.333252 2V10C0.333252 11.1046 1.22865 12 2.33325 12H18.3333C19.4379 12 20.3333 11.1046 20.3333 10V2C20.3333 0.8954 19.4379 0 18.3333 0ZM5.33325 6.75H3.33325C2.91915 6.75 2.58325 6.4141 2.58325 6C2.58325 5.5859 2.91915 5.25 3.33325 5.25H5.33325C5.74735 5.25 6.08325 5.5859 6.08325 6C6.08325 6.4141 5.74735 6.75 5.33325 6.75ZM10.3333 8C9.22865 8 8.33325 7.1046 8.33325 6C8.33325 4.8954 9.22865 4 10.3333 4C11.4379 4 12.3333 4.8954 12.3333 6C12.3333 7.1046 11.4379 8 10.3333 8ZM17.3333 6.75H15.3333C14.9192 6.75 14.5833 6.4141 14.5833 6C14.5833 5.5859 14.9192 5.25 15.3333 5.25H17.3333C17.7474 5.25 18.0833 5.5859 18.0833 6C18.0833 6.4141 17.7474 6.75 17.3333 6.75ZM18.3333 13.5C19.0777 13.5 19.7654 13.2624 20.3333 12.8646V14C20.3333 15.1046 19.4379 16 18.3333 16H2.33325C1.22865 16 0.333252 15.1046 0.333252 14V12.8646C0.901152 13.2624 1.58885 13.5 2.33325 13.5H18.3333ZM18.3333 17.5C19.0777 17.5 19.7654 17.2624 20.3333 16.8646V18C20.3333 19.1046 19.4379 20 18.3333 20H2.33325C1.22865 20 0.333252 19.1046 0.333252 18V16.8646C0.901152 17.2624 1.58885 17.5 2.33325 17.5H18.3333Z" fill="#9780F2"/>
</svg>
