<svg width="28" height="26" viewBox="0 0 28 26" fill="none" xmlns="http://www.w3.org/2000/svg">
<path d="M27.3334 9.5C27.3334 8.0272 26.1395 6.83333 24.6667 6.83333H21.6667V4.16667C21.6667 2.14453 20.0222 0.5 18.0001 0.5H10.0001C7.97795 0.5 6.33341 2.14453 6.33341 4.16667V6.83333H3.33341C1.86061 6.83333 0.666748 8.0272 0.666748 9.5V13.5H27.3334V9.5ZM19.6667 6.83333H8.33341V4.16667C8.33341 3.24733 9.08075 2.5 10.0001 2.5H18.0001C18.9194 2.5 19.6667 3.24733 19.6667 4.16667V6.83333ZM0.666748 22.8333V15.5H10.0001V17.5C10.0001 18.2363 10.597 18.8333 11.3334 18.8333H16.6667C17.4031 18.8333 18.0001 18.2363 18.0001 17.5V15.5H27.3334V22.8333C27.3334 24.3061 26.1395 25.5 24.6667 25.5H3.33341C1.86061 25.5 0.666748 24.3061 0.666748 22.8333Z" fill="#9780F2"/>
</svg>
